# xmcd
#
# Track frame offsets: 
#        150
#        22390
#        39125
#        56223
#        73580
#        86889
#        105834
#        121906
#        143671
#        161197
#        179237
#        197512
#        221024
#        237669
#        257442
#
# Disc length: 3678 seconds
#
# Revision: 2
# Processed by: cddbd v1.5.2PL0 Copyright (c) Steve Scherf et al.
# Submitted via: ExactAudioCopy v0.95b4
#
DISCID=de0e5c0f
DTITLE=Eddie Higgins - Standards by Request 1st Day
DYEAR=2008
DGENRE=Jazz
TTITLE0=It's Magic <J. Styne>
TTITLE1=Easy Living <R. Rainger>
TTITLE2=Gone With The Wind <A. Wrubel>
TTITLE3=I Gotta Right To Sing The Blues <H. Arlen>
TTITLE4=Dear Old Stockholm <Trad.>
TTITLE5=I Thought About You <J. van Heusen>
TTITLE6=You'd Be So Nice to Come Home To <C. Porter>
TTITLE7=My Old Flame <A. Johnston>
TTITLE8=Once Upon A Summertime <M. Legrand>
TTITLE9=Smoke Gets In Yours Eyes <J. Kern>
TTITLE10=Portrait In Black And White <A. C. Jobim>
TTITLE11=In the Wee Small Hours <D. Mann>
TTITLE12=The Man I Love <G. Gershwin>
TTITLE13=These Foolish Things <J. Stachey, H. Link>
TTITLE14=Stella By Starlight <V. Young>
EXTD=YEAR: 2008
EXTT0=
EXTT1=
EXTT2=
EXTT3=
EXTT4=
EXTT5=
EXTT6=
EXTT7=
EXTT8=
EXTT9=
EXTT10=
EXTT11=
EXTT12=
EXTT13=
EXTT14=
PLAYORDER=
